<?xml version="1.0" standalone="no"?>
<!DOCTYPE svg PUBLIC "-//W3C//DTD SVG 20010904//EN"
 "http://www.w3.org/TR/2001/REC-SVG-20010904/DTD/svg10.dtd">
<svg version="1.0" xmlns="http://www.w3.org/2000/svg"
 width="512.000000pt" height="512.000000pt" viewBox="0 0 512.000000 512.000000"
 preserveAspectRatio="xMidYMid meet">
<metadata>
Created by potrace 1.14, written by Peter Selinger 2001-2017
</metadata>
<g transform="translate(0.000000,512.000000) scale(0.100000,-0.100000)"
fill="#000000" stroke="none">
<path d="M272 4078 c-22 -25 -22 -24 -58 -318 -3 -25 -7 -56 -10 -70 -2 -14
-6 -52 -9 -85 -3 -33 -8 -67 -10 -75 -2 -8 -7 -44 -10 -80 -4 -36 -8 -76 -10
-90 -6 -38 -13 -99 -20 -160 -4 -30 -8 -66 -10 -80 -2 -14 -7 -50 -10 -80 -3
-30 -8 -66 -10 -80 -2 -14 -6 -47 -10 -75 -7 -64 -15 -132 -20 -170 -2 -16 -6
-50 -9 -75 -4 -25 -13 -101 -22 -170 -8 -69 -17 -138 -18 -155 -5 -41 -17
-124 -22 -155 -3 -14 -7 -57 -9 -97 -7 -116 -22 -109 326 -153 331 -42 404
-44 465 -12 55 28 115 92 135 145 19 48 3 45 194 33 61 -4 114 -11 119 -16 5
-5 -4 -25 -21 -47 -57 -75 -69 -143 -34 -211 33 -63 103 -110 159 -106 12 1
33 2 46 3 13 0 40 12 60 26 39 26 42 25 25 -7 -27 -50 -1 -156 48 -200 67 -61
188 -62 249 -1 17 17 18 17 10 -2 -28 -69 -28 -113 0 -168 46 -92 175 -132
253 -78 51 35 54 35 38 5 -31 -60 -9 -151 50 -212 22 -23 85 -43 127 -41 42 3
109 30 121 50 5 7 24 8 55 4 55 -8 121 8 160 37 16 11 62 60 105 109 l76 90
34 -21 c52 -32 122 -37 180 -11 50 22 68 39 169 155 52 60 60 66 75 53 23 -20
78 -37 120 -37 55 1 114 33 167 91 27 29 67 72 89 96 l40 44 49 -22 c67 -29
151 -23 202 16 86 66 128 137 120 204 -3 22 -9 48 -15 58 -9 18 -66 73 -145
142 l-40 34 35 28 c34 28 35 28 172 29 75 0 137 -3 138 -7 15 -143 76 -232
189 -274 54 -21 125 -22 235 -4 17 2 127 16 245 30 228 28 265 36 281 67 10
18 7 111 -5 173 -2 11 -7 49 -11 85 -4 36 -9 74 -11 85 -2 11 -11 76 -19 145
-22 186 -26 213 -30 240 -2 14 -6 52 -10 85 -3 33 -8 67 -10 75 -2 8 -7 45
-10 82 -3 37 -8 76 -10 87 -2 11 -6 46 -10 78 -3 32 -8 69 -10 83 -2 14 -7 45
-9 70 -6 57 -15 135 -21 180 -2 19 -11 91 -20 160 -9 69 -18 141 -20 160 -2
19 -9 71 -14 115 -20 154 -23 170 -45 194 -19 21 -26 23 -92 17 -39 -4 -80 -8
-92 -11 -11 -2 -47 -6 -79 -10 -32 -3 -107 -12 -168 -20 -60 -8 -130 -17 -155
-20 -116 -13 -182 -45 -229 -110 -45 -62 -54 -92 -56 -173 -1 -40 -4 -74 -6
-76 -2 -2 -33 -7 -69 -10 -35 -4 -66 -9 -69 -11 -5 -5 -98 45 -349 186 -98 55
-194 104 -216 110 -34 9 -173 6 -246 -6 -14 -2 -59 -7 -100 -10 -41 -3 -91 -8
-110 -10 -19 -2 -66 -7 -105 -10 -38 -3 -90 -7 -115 -10 -25 -2 -72 -7 -105
-10 -117 -11 -182 -34 -225 -80 -26 -28 -39 -30 -84 -15 -27 9 -263 74 -306
85 -8 2 -40 10 -70 18 -96 25 -182 1 -232 -65 -14 -18 -51 -84 -82 -145 l-56
-112 -42 4 c-24 2 -88 6 -143 10 -100 6 -119 10 -111 24 3 4 8 45 11 92 6 72
4 92 -14 139 -40 105 -131 171 -251 184 -30 4 -91 11 -135 16 -115 15 -143 19
-210 26 -33 3 -69 8 -80 10 -11 2 -51 7 -90 10 -65 5 -72 4 -93 -18z"/>
</g>
</svg>
